<svg xmlns="http://www.w3.org/2000/svg" viewBox="0 0 160 160" width="160" height="160" role="img" aria-label="Drone Simulator">
  <g fill="none" stroke-linecap="round" stroke-linejoin="round">
    <!-- HUD frame -->
    <g stroke="#7b8cff" stroke-width="2.5" opacity=".55">
      <path d="M6 28V6h22M132 6h22v22M154 132v22h-22M28 154H6v-22"/>
    </g>
    <circle cx="80" cy="80" r="63" stroke="#7b8cff" stroke-width="1.5" stroke-dasharray="3 9" opacity=".4"/>

    <!-- airframe -->
    <g stroke="#64748b" stroke-width="6.5">
      <path d="M62 62L98 98M98 62L62 98"/>
    </g>

    <!-- rotors -->
    <g stroke="#38bdf8" stroke-width="3">
      <circle cx="48" cy="48" r="17"/>
      <circle cx="112" cy="48" r="17"/>
      <circle cx="48" cy="112" r="17"/>
      <circle cx="112" cy="112" r="17"/>
    </g>
    <g stroke="#38bdf8" stroke-width="2" opacity=".45">
      <path d="M38 39a13 13 0 0 1 19 1M103 39a13 13 0 0 1 19 1M38 103a13 13 0 0 1 19 1M103 103a13 13 0 0 1 19 1"/>
    </g>

    <!-- body + reticle -->
    <rect x="66" y="66" width="28" height="28" rx="7" stroke="#38bdf8" stroke-width="3.5"/>
    <path d="M80 58v-9M80 111v-9M58 80h-9M111 80h-9" stroke="#7b8cff" stroke-width="2.5" opacity=".8"/>
    <circle cx="80" cy="80" r="3.5" fill="#38bdf8" stroke="none"/>
  </g>
</svg>
